<svg width="144" height="40" viewBox="0 0 144 40" fill="none" xmlns="http://www.w3.org/2000/svg">
<path d="M131.703 13.0909H134.159V16.8597L134.009 18.5284H134.159C134.422 18.0909 134.797 17.7347 135.284 17.4597C135.784 17.1722 136.34 17.0284 136.953 17.0284C138.14 17.0284 139.015 17.3784 139.578 18.0784C140.153 18.7784 140.44 19.7347 140.44 20.9472V26.5159H137.984V21.2472C137.984 20.6097 137.834 20.1284 137.534 19.8034C137.234 19.4659 136.815 19.2972 136.278 19.2972C135.94 19.2972 135.64 19.3722 135.378 19.5222C135.115 19.6597 134.89 19.8534 134.703 20.1034C134.528 20.3534 134.39 20.6472 134.29 20.9847C134.203 21.3097 134.159 21.6597 134.159 22.0347V26.5159H131.703V13.0909Z" fill="white"/>
<path d="M130.767 24.1722C130.367 24.9472 129.804 25.5847 129.079 26.0847C128.367 26.5722 127.473 26.8159 126.398 26.8159C125.686 26.8159 125.029 26.6972 124.429 26.4597C123.842 26.2097 123.329 25.8659 122.892 25.4284C122.467 24.9909 122.129 24.4784 121.879 23.8909C121.642 23.2909 121.523 22.6347 121.523 21.9222C121.523 21.2097 121.642 20.5534 121.879 19.9534C122.129 19.3534 122.467 18.8409 122.892 18.4159C123.329 17.9784 123.842 17.6409 124.429 17.4034C125.029 17.1534 125.686 17.0284 126.398 17.0284C127.461 17.0284 128.354 17.2722 129.079 17.7597C129.804 18.2472 130.336 18.8784 130.673 19.6534L128.423 20.5909C128.211 20.1659 127.936 19.8472 127.598 19.6347C127.273 19.4097 126.861 19.2972 126.361 19.2972C126.036 19.2972 125.729 19.3597 125.442 19.4847C125.154 19.6097 124.898 19.7847 124.673 20.0097C124.461 20.2347 124.292 20.5097 124.167 20.8347C124.042 21.1597 123.979 21.5222 123.979 21.9222C123.979 22.3222 124.042 22.6847 124.167 23.0097C124.292 23.3347 124.461 23.6097 124.673 23.8347C124.898 24.0597 125.154 24.2347 125.442 24.3597C125.729 24.4847 126.036 24.5472 126.361 24.5472C126.873 24.5472 127.304 24.4347 127.654 24.2097C128.017 23.9722 128.304 23.6347 128.517 23.1972L130.767 24.1722Z" fill="white"/>
<path d="M120.8 24.3034C120.375 25.0534 119.8 25.6597 119.075 26.1222C118.363 26.5847 117.488 26.8159 116.45 26.8159C115.75 26.8159 115.1 26.6972 114.5 26.4597C113.913 26.2097 113.4 25.8659 112.963 25.4284C112.525 24.9909 112.182 24.4784 111.932 23.8909C111.694 23.2909 111.575 22.6347 111.575 21.9222C111.575 21.2597 111.694 20.6347 111.932 20.0472C112.169 19.4472 112.5 18.9284 112.925 18.4909C113.35 18.0409 113.85 17.6847 114.425 17.4222C115.013 17.1597 115.657 17.0284 116.357 17.0284C117.094 17.0284 117.75 17.1534 118.325 17.4034C118.9 17.6409 119.382 17.9784 119.769 18.4159C120.157 18.8409 120.45 19.3472 120.65 19.9347C120.85 20.5222 120.95 21.1597 120.95 21.8472C120.95 21.9347 120.95 22.0097 120.95 22.0722C120.938 22.1472 120.932 22.2159 120.932 22.2784C120.919 22.3409 120.913 22.4097 120.913 22.4847H113.994C114.044 22.8597 114.144 23.1847 114.294 23.4597C114.457 23.7222 114.65 23.9472 114.875 24.1347C115.113 24.3097 115.369 24.4409 115.644 24.5284C115.919 24.6034 116.2 24.6409 116.488 24.6409C117.05 24.6409 117.513 24.5159 117.875 24.2659C118.25 24.0034 118.544 23.6784 118.757 23.2909L120.8 24.3034ZM118.569 20.7409C118.557 20.5784 118.5 20.3972 118.4 20.1972C118.313 19.9972 118.175 19.8097 117.988 19.6347C117.813 19.4597 117.588 19.3159 117.313 19.2034C117.05 19.0909 116.732 19.0347 116.357 19.0347C115.832 19.0347 115.369 19.1847 114.969 19.4847C114.569 19.7847 114.288 20.2034 114.125 20.7409H118.569Z" fill="white"/>
<path d="M106.383 26.5159V15.4909H102.633V13.0909H112.664V15.4909H108.914V26.5159H106.383Z" fill="white"/>
<path d="M102.077 24.3034C101.652 25.0534 101.077 25.6597 100.352 26.1222C99.6393 26.5847 98.7643 26.8159 97.7268 26.8159C97.0268 26.8159 96.3768 26.6972 95.7768 26.4597C95.1893 26.2097 94.6768 25.8659 94.2393 25.4284C93.8018 24.9909 93.4581 24.4784 93.2081 23.8909C92.9706 23.2909 92.8518 22.6347 92.8518 21.9222C92.8518 21.2597 92.9706 20.6347 93.2081 20.0472C93.4456 19.4472 93.7768 18.9284 94.2018 18.4909C94.6268 18.0409 95.1268 17.6847 95.7018 17.4222C96.2893 17.1597 96.9331 17.0284 97.6331 17.0284C98.3706 17.0284 99.0268 17.1534 99.6018 17.4034C100.177 17.6409 100.658 17.9784 101.046 18.4159C101.433 18.8409 101.727 19.3472 101.927 19.9347C102.127 20.5222 102.227 21.1597 102.227 21.8472C102.227 21.9347 102.227 22.0097 102.227 22.0722C102.214 22.1472 102.208 22.2159 102.208 22.2784C102.196 22.3409 102.189 22.4097 102.189 22.4847H95.2706C95.3206 22.8597 95.4206 23.1847 95.5706 23.4597C95.7331 23.7222 95.9268 23.9472 96.1518 24.1347C96.3893 24.3097 96.6456 24.4409 96.9206 24.5284C97.1956 24.6034 97.4768 24.6409 97.7643 24.6409C98.3268 24.6409 98.7893 24.5159 99.1518 24.2659C99.5268 24.0034 99.8206 23.6784 100.033 23.2909L102.077 24.3034ZM99.8456 20.7409C99.8331 20.5784 99.7768 20.3972 99.6768 20.1972C99.5893 19.9972 99.4518 19.8097 99.2643 19.6347C99.0893 19.4597 98.8643 19.3159 98.5893 19.2034C98.3268 19.0909 98.0081 19.0347 97.6331 19.0347C97.1081 19.0347 96.6456 19.1847 96.2456 19.4847C95.8456 19.7847 95.5643 20.2034 95.4018 20.7409H99.8456Z" fill="white"/>
<path d="M86.8713 17.3284H89.1776V18.6034H89.3276C89.4401 18.3784 89.5901 18.1722 89.7776 17.9847C89.9651 17.7972 90.1713 17.6347 90.3963 17.4972C90.6338 17.3597 90.8838 17.2534 91.1463 17.1784C91.4213 17.1034 91.6901 17.0659 91.9526 17.0659C92.2776 17.0659 92.5526 17.0972 92.7776 17.1597C93.0151 17.2222 93.2151 17.3034 93.3776 17.4034L92.7213 19.6347C92.5713 19.5597 92.4026 19.5034 92.2151 19.4659C92.0401 19.4159 91.8213 19.3909 91.5588 19.3909C91.2213 19.3909 90.9151 19.4597 90.6401 19.5972C90.3651 19.7222 90.1276 19.9034 89.9276 20.1409C89.7401 20.3784 89.5901 20.6597 89.4776 20.9847C89.3776 21.2972 89.3276 21.6409 89.3276 22.0159V26.5159H86.8713V17.3284Z" fill="white"/>
<path d="M83.0235 25.316H82.8735C82.586 25.7785 82.1985 26.1472 81.711 26.4222C81.2235 26.6847 80.6673 26.816 80.0423 26.816C78.8798 26.816 78.011 26.4597 77.436 25.7472C76.8735 25.0347 76.5923 24.0847 76.5923 22.8972V17.3285H79.0485V22.5972C79.0485 23.2597 79.1923 23.7535 79.4798 24.0785C79.7798 24.391 80.211 24.5472 80.7735 24.5472C81.111 24.5472 81.4048 24.4785 81.6548 24.341C81.9173 24.191 82.136 23.9972 82.311 23.7597C82.4985 23.5097 82.636 23.2222 82.7235 22.8972C82.8235 22.5597 82.8735 22.2035 82.8735 21.8285V17.3285H85.3298V26.516H83.0235V25.316Z" fill="white"/>
<path d="M70.7167 19.4285H69.1042V17.3285H70.7167V14.516H73.173V17.3285H75.423V19.4285H73.173V22.991C73.173 23.2035 73.1917 23.4035 73.2292 23.591C73.2792 23.766 73.3667 23.916 73.4917 24.041C73.6667 24.241 73.9167 24.341 74.2417 24.341C74.4542 24.341 74.623 24.3222 74.748 24.2847C74.873 24.2347 74.9917 24.1722 75.1042 24.0972L75.798 26.2535C75.5105 26.391 75.198 26.491 74.8605 26.5535C74.5355 26.6285 74.173 26.666 73.773 26.666C73.3105 26.666 72.8917 26.5972 72.5167 26.4597C72.1542 26.3097 71.848 26.1097 71.598 25.8597C71.0105 25.2972 70.7167 24.4972 70.7167 23.4597V19.4285Z" fill="white"/>
<path d="M65.7647 25.316H65.6147C65.3272 25.7785 64.9397 26.1472 64.4522 26.4222C63.9647 26.6847 63.4085 26.816 62.7835 26.816C61.621 26.816 60.7522 26.4597 60.1772 25.7472C59.6147 25.0347 59.3335 24.0847 59.3335 22.8972V17.3285H61.7897V22.5972C61.7897 23.2597 61.9335 23.7535 62.221 24.0785C62.521 24.391 62.9522 24.5472 63.5147 24.5472C63.8522 24.5472 64.146 24.4785 64.396 24.341C64.6585 24.191 64.8772 23.9972 65.0522 23.7597C65.2397 23.5097 65.3772 23.2222 65.4647 22.8972C65.5647 22.5597 65.6147 22.2035 65.6147 21.8285V17.3285H68.071V26.516H65.7647V25.316Z" fill="white"/>
<path d="M50.1819 13.0909H58.6944V15.4909H52.7131V18.7534H58.0944V21.1534H52.7131V26.5159H50.1819V13.0909Z" fill="white"/>
<path d="M26.6665 40V33.3333C30.3554 33.3333 33.3332 30.3555 33.3332 26.6666H39.9998C39.9998 34.0444 34.0221 40 26.6665 40Z" fill="#FFD11A"/>
<path d="M26.6666 40V33.3333C22.9777 33.3333 19.9999 30.3555 19.9999 26.6666H13.3333C13.3333 34.0444 19.311 40 26.6666 40Z" fill="#FFD11A"/>
<path d="M0 26.6667H6.66667C6.66667 30.3556 9.64444 33.3334 13.3333 33.3334V40.0001C5.97778 40.0001 0 34.0445 0 26.6667Z" fill="#FFD11A"/>
<path d="M0 26.6667H6.66667C6.66667 22.9778 9.64444 20 13.3333 20V13.3334C5.97778 13.3334 0 19.3112 0 26.6667Z" fill="#FFD11A"/>
<path d="M13.3333 0V6.66667C9.64444 6.66667 6.66667 9.64444 6.66667 13.3333H0C0 5.97778 5.97778 0 13.3333 0Z" fill="#FFD11A"/>
<path d="M13.3333 0V6.66667C17.0221 6.66667 19.9999 9.64444 19.9999 13.3333H26.6666C26.6666 5.97778 20.6888 0 13.3333 0Z" fill="#FFD11A"/>
<path d="M40.0001 13.3333H33.3334C33.3334 9.64444 30.3556 6.66667 26.6667 6.66667V0C34.0223 0 40.0001 5.97778 40.0001 13.3333Z" fill="#FFD11A"/>
<path d="M40.0001 13.3334H33.3334C33.3334 17.0223 30.3556 20 26.6667 20V26.6667C34.0223 26.6667 40.0001 20.7112 40.0001 13.3334Z" fill="#FFD11A"/>
</svg>
