<svg id="favorites" width="20" height="20" fill="currentcolor" xmlns="http://www.w3.org/2000/svg"><path d="m9.704 17.425-.005-.002-.02-.01a19.102 19.102 0 0 1-1.198-.733 20.98 20.98 0 0 1-2.657-2.091C3.907 12.8 1.875 10.146 1.875 6.875c0-2.44 2.053-4.375 4.531-4.375 1.458 0 2.763.666 3.594 1.71a4.583 4.583 0 0 1 3.594-1.71c2.478 0 4.531 1.935 4.531 4.375 0 3.27-2.032 5.926-3.949 7.714a20.989 20.989 0 0 1-3.537 2.642 12.325 12.325 0 0 1-.319.181l-.019.01-.005.003-.002.002a.627.627 0 0 1-.588 0l-.002-.002Z" stroke="#currentcolor" fill="currentcolor" stroke-width="1.5" stroke-linejoin="round"/></svg>