<svg width="60" height="61" fill="none" xmlns="http://www.w3.org/2000/svg"><path d="M40.5 41C48.505 39.073 54 35.095 54 30.5S48.505 21.927 40.5 20c.824 3.16 1.287 6.726 1.287 10.5S41.324 37.84 40.5 41ZM19.5 41C11.495 39.073 6 35.095 6 30.5s5.495-8.573 13.5-10.5c-.823 3.16-1.287 6.726-1.287 10.5s.463 7.34 1.287 10.5Z" fill="#404040"/><path d="M19.5 41c1.927 8.005 5.905 13.5 10.5 13.5s8.573-5.495 10.5-13.5c-3.16.824-6.726 1.287-10.5 1.287S22.66 41.824 19.5 41ZM19.5 20C21.427 11.995 25.405 6.5 30 6.5s8.573 5.495 10.5 13.5c-3.16-.823-6.726-1.287-10.5-1.287s-7.34.463-10.5 1.287Z" fill="#FFD11A"/></svg>