<svg fill="none" xmlns="http://www.w3.org/2000/svg" viewBox="0 0 40 40"><g clip-path="url(#a)"><path d="M23.145 27.533H16.9V40h6.245V27.533ZM23.145 0H16.9v12.467h6.245V0ZM27.532 16.876v6.244H40v-6.244H27.532ZM0 16.881v6.245h12.468V16.88H0Z" fill="#FFD11A"/><path d="m27.543 23.102-4.415 4.415 8.815 8.814 4.416-4.415-8.816-8.814ZM8.073 3.637 3.658 8.052l8.815 8.815 4.416-4.416-8.816-8.814ZM23.112 12.471l4.416 4.415 8.816-8.814-4.416-4.415-8.816 8.814ZM3.647 31.936l4.415 4.415 8.816-8.814-4.416-4.415-8.816 8.814Z" fill="#404040"/></g><defs><clipPath id="a"><path fill="#fff" d="M0 0h40v40H0z"/></clipPath></defs></svg>