<svg width="20" height="21" fill="none" xmlns="http://www.w3.org/2000/svg"><path d="M18.003 9.524c.212.268.33.616.33.977s-.117.71-.33.977c-1.35 1.648-4.42 4.857-8.003 4.857-3.584 0-6.654-3.209-8.002-4.857a1.575 1.575 0 0 1-.331-.977c0-.36.118-.709.33-.977C3.348 7.876 6.418 4.668 10 4.668c3.584 0 6.654 3.208 8.003 4.856Z" stroke="#FFD11A" stroke-width="1.5" stroke-linecap="round" stroke-linejoin="round"/><path d="M10 13.094c1.42 0 2.57-1.161 2.57-2.593S11.42 7.91 10 7.91c-1.418 0-2.568 1.16-2.568 2.592 0 1.432 1.15 2.593 2.569 2.593Z" stroke="#FFD11A" stroke-width="1.5" stroke-linecap="round" stroke-linejoin="round"/></svg>