<svg fill="none" xmlns="http://www.w3.org/2000/svg" viewBox="0 0 60 60"><path d="M40.5 40.5C48.505 38.573 54 34.595 54 30s-5.495-8.573-13.5-10.5c.824 3.16 1.287 6.726 1.287 10.5s-.463 7.34-1.287 10.5ZM19.5 40.5C11.495 38.573 6 34.595 6 30s5.495-8.573 13.5-10.5c-.823 3.16-1.287 6.726-1.287 10.5s.463 7.34 1.287 10.5Z" fill="#404040"/><path d="M19.5 40.5C21.427 48.505 25.405 54 30 54s8.573-5.495 10.5-13.5c-3.16.824-6.726 1.287-10.5 1.287s-7.34-.463-10.5-1.287ZM19.5 19.5C21.427 11.495 25.405 6 30 6s8.573 5.495 10.5 13.5c-3.16-.823-6.726-1.287-10.5-1.287s-7.34.463-10.5 1.287Z" fill="#FFD11A"/></svg>