<svg id="close" width="34" height="34" viewBox="0 0 34 34" xmlns="http://www.w3.org/2000/svg">
<path fill-rule="evenodd" clip-rule="evenodd" d="M8.43922 7.55745C8.85415 7.14252 9.52689 7.14252 9.94182 7.55745L26.4704 24.0861C26.8854 24.501 26.8854 25.1737 26.4704 25.5887C26.0555 26.0036 25.3828 26.0036 24.9678 25.5887L8.43922 9.06006C8.02429 8.64512 8.02429 7.97239 8.43922 7.55745Z"/>
<path fill-rule="evenodd" clip-rule="evenodd" d="M8.43925 25.5888C8.85418 26.0037 9.52692 26.0037 9.94185 25.5888L26.4705 9.06017C26.8854 8.64523 26.8854 7.9725 26.4705 7.55756C26.0555 7.14263 25.3828 7.14263 24.9679 7.55756L8.43925 24.0862C8.02432 24.5011 8.02432 25.1739 8.43925 25.5888Z"/>
</svg>
