<svg width="120" height="121" fill="none" xmlns="http://www.w3.org/2000/svg"><path d="M80 120.5v-20c11.067 0 20-8.933 20-20h20c0 22.133-17.934 40-40 40ZM80 120.5v-20c-11.067 0-20-8.933-20-20H40c0 22.133 17.933 40 40 40ZM0 80.5h20c0 11.067 8.933 20 20 20v20c-22.067 0-40-17.867-40-40ZM0 80.5h20c0-11.067 8.933-20 20-20v-20c-22.067 0-40 17.933-40 40ZM40 .5v20c-11.067 0-20 8.933-20 20H0C0 18.433 17.933.5 40 .5ZM40 .5v20c11.067 0 20 8.933 20 20h20c0-22.067-17.934-40-40-40ZM119.999 40.5h-20c0-11.067-8.933-20-20-20V.5c22.067 0 40 17.933 40 40ZM119.999 40.5h-20c0 11.067-8.933 20-20 20v20c22.067 0 40-17.867 40-40Z" fill="#FFD11A"/></svg>